<?xml version="1.0" encoding="utf-8"?>
<!-- Generator: Adobe Illustrator 15.0.0, SVG Export Plug-In . SVG Version: 6.00 Build 0)  -->
<!DOCTYPE svg PUBLIC "-//W3C//DTD SVG 1.1//EN" "http://www.w3.org/Graphics/SVG/1.1/DTD/svg11.dtd">
<svg version="1.1" id="Layer_1" xmlns="http://www.w3.org/2000/svg" xmlns:xlink="http://www.w3.org/1999/xlink" x="0px" y="0px"
	 width="841.889px" height="230.146px" viewBox="0 182.406 841.889 230.146" enable-background="new 0 182.406 841.889 230.146"
	 xml:space="preserve">
<title>Eaton</title>
<path fill="#FFFFFF" d="M272.511,226.779l20.338,73.392h-42.203L272.511,226.779z M235.372,351.539l-18.569,60.934h108.603
	l-17.686-60.934H235.372z M518.655,182.728H310.292v65.354h65.757v164.31h105.788c-32.968-25.277-52.044-64.652-51.447-106.191
	c0-55.225,33.521-109.325,88.426-123.473 M554.908,353.548c24.859-0.391,44.695-20.859,44.305-45.717
	c-0.003-0.168-0.007-0.336-0.011-0.504c0-25.564-18.489-48.796-43.409-48.796s-44.695,23.232-44.695,48.796
	c-1.11,24.393,17.764,45.066,42.156,46.178C553.806,353.531,554.358,353.544,554.908,353.548 M773.4,327.101l-42.283-144.695
	H622.675V412.07h67.604V268.5h0.482l41.962,143.972h109.165V182.808h-67.927v144.696L773.4,327.101z M130.869,412.472l19.534-64.309
	H78.055V328.71h78.377l18.569-61.738H78.136v-18.73h102.412l19.695-65.354H0v229.664L130.869,412.472z"/>
</svg>
