<?xml version="1.0" encoding="utf-8"?>
<!-- Generator: Adobe Illustrator 15.0.0, SVG Export Plug-In . SVG Version: 6.00 Build 0)  -->
<!DOCTYPE svg PUBLIC "-//W3C//DTD SVG 1.1//EN" "http://www.w3.org/Graphics/SVG/1.1/DTD/svg11.dtd">
<svg version="1.1" id="Layer_1" xmlns="http://www.w3.org/2000/svg" xmlns:xlink="http://www.w3.org/1999/xlink" x="0px" y="0px"
	 width="390.602px" height="78.531px" viewBox="225.643 258.375 390.602 78.531"
	 enable-background="new 225.643 258.375 390.602 78.531" xml:space="preserve">
<title>Landata</title>
<g>
	<path fill="#FFFFFF" d="M597.464,336.836c-10.323,0.023-18.719-8.314-18.766-18.639c0-14.537,15.662-22.695,27.509-16.688
		c0.411,0.24,0.876,0.373,1.353,0.385c1.537,0,1.851-1.922,1.851-3.09c0.252-6.631-4.921-12.213-11.553-12.463
		c-0.131-0.006-0.262-0.008-0.394-0.01c-2.968,0.023-5.9,0.639-8.628,1.809c-0.61,0.254-1.252,0.42-1.908,0.498
		c-1.062,0.016-2.044-0.561-2.549-1.494c-0.254-0.43-0.368-0.928-0.327-1.424c0.006-1.207,0.688-2.307,1.766-2.848
		c3.592-1.887,7.605-2.822,11.661-2.721c10.222-0.141,18.623,8.029,18.765,18.252c0.002,0.139,0.003,0.277,0.002,0.416v19.434
		c0.04,10.223-8.214,18.543-18.437,18.584C597.694,336.838,597.579,336.838,597.464,336.836 M597.293,306.465
		c-6.549,0.143-11.742,5.566-11.602,12.115c0.142,6.549,5.565,11.742,12.114,11.602c6.448-0.141,11.604-5.406,11.604-11.855
		C609.332,311.709,603.912,306.403,597.293,306.465"/>
	<path fill="#FFFFFF" d="M348.364,328.721c0.084,0.406,0.122,0.822,0.113,1.238c-0.069,1.07-0.586,2.063-1.424,2.734
		c-3.316,2.828-7.575,4.307-11.932,4.143c-10.174,0.197-18.581-7.891-18.778-18.064c-0.004-0.191-0.005-0.383-0.002-0.574v-56.412
		c0.004-1.887,1.537-3.414,3.425-3.41c1.881,0.006,3.405,1.529,3.409,3.41V317.7c0,6.85,4.927,12.445,11.946,12.445
		c2.988,0.104,5.909-0.912,8.188-2.848c1.272-1.049,3.141-0.93,4.271,0.27c0.389,0.299,0.657,0.729,0.754,1.211"/>
	<path fill="#FFFFFF" d="M433.907,336.551c-1.855,0.041-3.392-1.432-3.431-3.287c-0.001-0.043-0.001-0.086-0.001-0.129v-33.232
		c0.322-6.598-4.765-12.209-11.362-12.531c-6.598-0.32-12.207,4.766-12.529,11.363c-0.02,0.389-0.02,0.779,0,1.168v33.189
		c0.004,1.887-1.522,3.42-3.409,3.424c-1.888,0.006-3.421-1.521-3.426-3.408c0-0.006,0-0.012,0-0.016v-48.512
		c-0.016-1.895,1.508-3.443,3.403-3.459c0.015,0,0.028,0,0.043,0c1.137,0.027,2.193,0.594,2.848,1.523
		c0.188,0.383,0.585,0.619,1.011,0.598c0.243-0.037,0.481-0.1,0.712-0.186c3.271-1.939,6.99-3,10.793-3.074
		c10.221-0.143,18.623,8.029,18.764,18.25c0.002,0.145,0.003,0.287,0.001,0.43v34.43c0.056,1.846-1.397,3.389-3.244,3.443
		c-0.048,0.002-0.096,0.002-0.145,0.002"/>
	<path fill="#FFFFFF" d="M575.737,329.959c-0.076,1.068-0.592,2.059-1.424,2.734c-3.312,2.83-7.564,4.313-11.918,4.156
		c-10.221,0.205-18.672-7.914-18.877-18.135c-0.003-0.178-0.004-0.354-0.003-0.531v-26.883c0-3.131-1.751-4.514-4.77-4.514h-2.335
		c-1.518,0.006-2.752-1.223-2.756-2.74s1.223-2.75,2.74-2.756c0.005,0,0.01,0,0.016,0h2.32c2.99,0,4.771-1.424,4.771-4.514v-14.85
		c0-4.557,6.948-4.527,6.948,0v14.822c0,3.033,1.424,4.514,4.784,4.514h12.999c1.502,0.043,2.711,1.246,2.763,2.748
		c-0.052,1.5-1.261,2.703-2.763,2.748h-12.999c-3.289,0-4.784,1.424-4.784,4.514v26.91c0,6.949,4.855,12.459,11.96,12.459
		c2.642,0.033,5.218-0.82,7.318-2.42c0.841-0.725,1.91-1.127,3.019-1.141c0.625,0.002,1.233,0.201,1.737,0.57
		C575.252,328.172,575.719,329.032,575.737,329.959"/>
	<path fill="#FFFFFF" d="M465.944,336.694c-10.174,0.189-18.574-7.906-18.763-18.08c-0.003-0.143-0.004-0.287-0.003-0.43v-19.363
		c-0.096-10.223,8.114-18.588,18.336-18.684c0.144,0,0.287,0,0.43,0.002c2.839,0,5.646,0.607,8.23,1.779
		c0.451,0.191,0.935,0.293,1.424,0.299c1.297,0.004,2.353-1.043,2.356-2.342c0-0.064-0.002-0.129-0.007-0.191v-17.842
		c0.121-1.883,1.747-3.311,3.63-3.189c1.714,0.111,3.079,1.477,3.19,3.189v56.199c0.056,10.223-8.186,18.555-18.408,18.611
		c-0.124,0-0.249,0-0.373-0.002 M477.948,299.561c0.322-6.598-4.766-12.207-11.363-12.529s-12.207,4.764-12.529,11.361
		c-0.019,0.389-0.019,0.779,0,1.168v18.096c0,6.85,4.927,12.445,11.932,12.445c6.605,0.006,11.965-5.346,11.971-11.951
		c0-0.164-0.004-0.328-0.01-0.494V299.561z"/>
	<path fill="#FFFFFF" d="M370.633,336.836c-10.322,0.023-18.713-8.316-18.752-18.639c0-14.537,15.662-22.695,27.494-16.688
		c0.414,0.234,0.878,0.367,1.353,0.385c1.553,0,1.88-1.922,1.88-3.09c0.236-6.648-4.962-12.229-11.61-12.465
		c-0.117-0.004-0.233-0.006-0.35-0.008c-2.968,0.023-5.901,0.639-8.629,1.809c-0.614,0.256-1.262,0.422-1.922,0.498
		c-1.057,0.012-2.033-0.564-2.535-1.494c-0.266-0.426-0.386-0.926-0.342-1.424c0.006-1.211,0.695-2.314,1.78-2.848
		c3.591-1.887,7.605-2.824,11.661-2.721c10.222-0.141,18.623,8.029,18.766,18.252c0.002,0.139,0.002,0.277,0.001,0.416v19.434
		c0.04,10.223-8.214,18.543-18.437,18.584C370.872,336.838,370.752,336.838,370.633,336.836 M370.476,306.465
		c-6.55,0.135-11.75,5.551-11.616,12.102c0.134,6.549,5.551,11.748,12.1,11.615c6.454-0.131,11.617-5.4,11.619-11.855
		c-0.063-6.613-5.475-11.924-12.088-11.861C370.486,306.465,370.481,306.465,370.476,306.465"/>
	<path fill="#FFFFFF" d="M511.65,336.836c-10.324,0.023-18.72-8.314-18.767-18.639c0-14.537,15.662-22.695,27.509-16.688
		c0.412,0.24,0.877,0.373,1.353,0.385c1.538,0,1.865-1.922,1.865-3.09c0.244-6.641-4.941-12.221-11.582-12.465
		c-0.126-0.004-0.252-0.006-0.378-0.008c-2.964,0.023-5.893,0.637-8.614,1.809c-0.615,0.252-1.262,0.42-1.922,0.498
		c-1.063,0.016-2.045-0.561-2.549-1.494c-0.254-0.43-0.369-0.928-0.328-1.424c0.002-1.211,0.692-2.316,1.78-2.848
		c3.586-1.887,7.596-2.824,11.646-2.721c10.222-0.148,18.63,8.016,18.779,18.236c0.003,0.148,0.003,0.297,0.002,0.445v19.436
		c0.04,10.223-8.214,18.543-18.437,18.582c-0.12,0.002-0.239,0-0.358-0.002 M511.492,306.481c-6.549,0.133-11.749,5.551-11.615,12.1
		c0.133,6.549,5.551,11.75,12.1,11.615c6.454-0.131,11.617-5.4,11.619-11.855C523.526,311.725,518.109,306.417,511.492,306.481"/>
	<path fill="#FFFFFF" d="M261.523,315.649c-0.016-11.756,9.502-21.299,21.258-21.314c11.757-0.016,21.3,9.502,21.315,21.258
		s-9.502,21.299-21.258,21.314c-0.01,0-0.02,0-0.028,0C271.062,336.917,261.532,327.399,261.523,315.649L261.523,315.649
		 M225.643,258.411h57.423c11.617,0.008,21.03,9.428,21.03,21.045v10.109c-14.445-11.713-35.65-9.5-47.364,4.945
		c-10.001,12.334-10.028,29.977-0.063,42.34h-9.967c-11.615,0-21.03-9.414-21.03-21.029l0,0v-57.41H225.643z"/>
</g>
<g>
	<path d="M-243.517,357.209c-17.278,0.047-31.332-13.904-31.41-31.183c0-24.333,26.185-37.959,46.019-27.907
		c0.696,0.382,1.471,0.602,2.264,0.641c2.592,0,3.118-3.218,3.118-5.168c0-11.391-8.301-20.888-19.934-20.888
		c-4.972,0.041-9.886,1.077-14.452,3.047c-1.026,0.412-2.104,0.685-3.203,0.812c-1.774,0.021-3.416-0.938-4.271-2.492
		c-0.419-0.692-0.613-1.498-0.556-2.307c-0.022-2.059,1.126-3.951,2.962-4.884c6.028-3.153,12.762-4.717,19.563-4.542
		c17.078-0.221,31.103,13.444,31.324,30.523c0.003,0.243,0.003,0.486,0,0.73v32.521c0.057,17.119-13.774,31.043-30.894,31.1
		C-243.163,357.212-243.34,357.211-243.517,357.209z M-243.802,306.407c-10.95,0.268-19.611,9.361-19.344,20.313
		c0.268,10.95,9.361,19.611,20.313,19.344c10.766-0.263,19.354-9.067,19.35-19.837c-0.133-11.068-9.206-19.938-20.275-19.819
		H-243.802z"/>
	<path d="M-660.289,343.64c0.138,0.679,0.195,1.372,0.171,2.064c-0.093,1.77-0.918,3.421-2.278,4.557
		c-5.226,4.642-11.932,6.948-19.935,6.948c-17.022,0.276-31.046-13.299-31.322-30.321c-0.005-0.287-0.005-0.574-0.002-0.861v-94.4
		c0-3.146,2.55-5.695,5.695-5.695s5.695,2.55,5.695,5.695v93.547c0,11.476,8.244,20.83,19.934,20.83
		c5.924,0,9.099-1.424,13.684-4.841c2.421-1.766,4.728-1.538,7.119,0.441c0.652,0.508,1.105,1.229,1.281,2.036H-660.289z"/>
	<path d="M-517.194,356.74c-3.098,0.047-5.647-2.426-5.695-5.523c-0.001-0.058-0.001-0.115,0-0.172v-55.53
		c0-11.391-8.301-20.902-19.934-20.902s-19.934,9.512-19.934,20.902v55.53c0,7.674-11.392,7.646-11.392,0v-81.159
		c-0.047-3.146,2.464-5.733,5.609-5.781c0.057-0.001,0.114-0.001,0.172,0c1.883,0.055,3.627,1.001,4.698,2.549
		c0.319,0.637,0.983,1.027,1.695,0.997c0.412-0.066,0.817-0.172,1.21-0.313c5.467-3.248,11.683-5.023,18.04-5.154
		c17.085-0.261,31.147,13.379,31.408,30.464c0.005,0.287,0.005,0.574,0.001,0.86v57.609c0.04,3.145-2.479,5.727-5.623,5.766
		c-0.024,0-0.048,0.001-0.072,0.001L-517.194,356.74z"/>
	<path d="M-279.882,345.705c-0.132,1.784-0.998,3.435-2.392,4.557c-5.24,4.642-11.932,6.948-19.934,6.948
		c-17.628,0-31.596-13.483-31.596-31.211V281.02c0-5.226-2.919-7.547-7.987-7.547h-3.901c-2.544-0.142-4.491-2.318-4.351-4.862
		c0.131-2.347,2.004-4.22,4.351-4.35h3.873c4.997,0,7.987-2.378,7.987-7.532v-24.86c0-7.604,11.633-7.561,11.633,0v24.817
		c0,5.083,2.506,7.532,8.002,7.532h21.742c2.544-0.142,4.721,1.806,4.862,4.35s-1.806,4.721-4.35,4.862
		c-0.171,0.01-0.342,0.01-0.513,0h-21.728c-5.496,0-8.002,2.449-8.002,7.547v44.979c0,11.604,8.102,20.846,20.005,20.846
		c4.417,0.046,8.724-1.377,12.245-4.044c1.405-1.204,3.189-1.874,5.04-1.894c1.052,0.001,2.076,0.33,2.934,0.939
		c1.271,0.88,2.043,2.313,2.078,3.858V345.705z"/>
	<path d="M-463.558,356.967c-17.342,0-31.41-13.284-31.41-30.94v-32.406c-0.206-17.095,13.484-31.119,30.579-31.326
		c0.277-0.003,0.555-0.003,0.831,0.002c4.745,0.011,9.434,1.03,13.755,2.989c0.73,0.309,1.513,0.478,2.307,0.499
		c2.162,0.017,3.929-1.723,3.945-3.885c0.001-0.13-0.004-0.259-0.016-0.387v-29.901c0-7.589,11.391-7.546,11.391,0v94.23
		c0.097,17.095-13.685,31.032-30.779,31.128c-0.215,0.001-0.43,0-0.645-0.003H-463.558z M-443.623,294.917
		c0-11.391-8.302-20.902-19.935-20.902s-19.934,9.512-19.934,20.902v30.271c0,11.462,8.244,20.816,19.934,20.816
		c11.69,0,19.935-9.354,19.935-20.816V294.917L-443.623,294.917z"/>
	<path d="M-623.014,357.209c-17.277,0.047-31.331-13.904-31.409-31.183c0-24.333,26.17-37.959,46.019-27.907
		c0.69,0.384,1.46,0.603,2.249,0.641c2.605,0,3.133-3.218,3.133-5.168c0-11.391-8.315-20.888-19.934-20.888
		c-4.968,0.04-9.878,1.076-14.438,3.047c-1.027,0.41-2.104,0.684-3.203,0.812c-1.775,0.023-3.418-0.935-4.271-2.492
		c-0.419-0.692-0.613-1.498-0.556-2.307c-0.025-2.06,1.123-3.954,2.962-4.884c6.012-3.145,12.725-4.708,19.507-4.542
		c17.086-0.26,31.147,13.38,31.408,30.466c0.004,0.263,0.004,0.525,0.002,0.788v32.521c0.048,17.127-13.797,31.051-30.924,31.1
		c-0.167,0-0.334-0.001-0.501-0.003H-623.014z M-623.313,306.407c-10.951,0.244-19.632,9.319-19.388,20.271
		s9.319,19.632,20.271,19.388c10.783-0.24,19.398-9.053,19.393-19.839c-0.125-11.071-9.201-19.944-20.272-19.819
		C-623.311,306.407-623.312,306.407-623.313,306.407z"/>
	<path d="M-387.097,357.209c-17.295,0.07-31.375-13.888-31.453-31.183c0-24.333,26.185-37.959,46.033-27.907
		c0.69,0.384,1.46,0.603,2.249,0.641c2.592,0,3.133-3.218,3.133-5.168c0-11.391-8.315-20.888-19.934-20.888
		c-4.953,0.046-9.848,1.082-14.396,3.047c-1.032,0.411-2.114,0.684-3.218,0.812c-1.775,0.026-3.421-0.933-4.271-2.492
		c-0.423-0.691-0.622-1.497-0.569-2.307c-0.02-2.062,1.135-3.955,2.976-4.884c6.01-3.148,12.724-4.712,19.507-4.542
		c17.086-0.26,31.147,13.38,31.408,30.466c0.004,0.263,0.005,0.525,0.002,0.788v32.521c0.057,17.119-13.775,31.043-30.895,31.1
		c-0.177,0-0.354-0.001-0.53-0.003H-387.097z M-387.382,306.407c-10.951,0.244-19.632,9.319-19.388,20.271
		s9.319,19.632,20.271,19.388c10.783-0.24,19.397-9.053,19.393-19.839c-0.125-11.071-9.201-19.944-20.272-19.819
		C-387.38,306.407-387.381,306.407-387.382,306.407z"/>
	<path d="M-805.578,321.755c0-19.659,15.937-35.596,35.596-35.596s35.596,15.937,35.596,35.596s-15.937,35.597-35.596,35.597
		S-805.578,341.415-805.578,321.755L-805.578,321.755z M-865.636,226.002h95.98c19.439,0,35.198,15.758,35.198,35.197l0,0v16.844
		c-24.167-19.602-59.648-15.9-79.249,8.267c-16.74,20.639-16.783,50.169-0.103,70.856h-16.63c-19.439,0-35.197-15.758-35.197-35.197
		l0,0V226.002z"/>
</g>
</svg>
